HIERARCHY
ROOT joint_Root
{
	OFFSET 0.0 0.0 0.0
	CHANNELS 6 Xposition Yposition Zposition Zrotation Xrotation Yrotation 
	JOINT Hips
	{
		OFFSET -17.1583 93.1646 452.98
		CHANNELS 6 Xposition Yposition Zposition Zrotation Xrotation Yrotation 
		JOINT Spine
		{
			OFFSET 15.7357 0.0 0.0
			CHANNELS 6 Xposition Yposition Zposition Zrotation Xrotation Yrotation 
			JOINT Chest
			{
				OFFSET 8.98455 -0.406207 0.0
				CHANNELS 6 Xposition Yposition Zposition Zrotation Xrotation Yrotation 
				JOINT Neck
				{
					OFFSET 16.3773 0.0 0.0
					CHANNELS 6 Xposition Yposition Zposition Zrotation Xrotation Yrotation 
					JOINT Head
					{
						OFFSET 6.45672 0.0 0.0
						CHANNELS 6 Xposition Yposition Zposition Zrotation Xrotation Yrotation 
						End Site
						{
							OFFSET 0.0 0.0 0.0
						}
					}
				}
				JOINT Shoulder_L
				{
					OFFSET 12.9942 -0.242716 4.98039
					CHANNELS 6 Xposition Yposition Zposition Zrotation Xrotation Yrotation 
					JOINT UpperArm_L
					{
						OFFSET 5.34809 0.0 0.0
						CHANNELS 6 Xposition Yposition Zposition Zrotation Xrotation Yrotation 
						JOINT LowerArm_L
						{
							OFFSET 24.3286 1.87007e-05 0.0
							CHANNELS 6 Xposition Yposition Zposition Zrotation Xrotation Yrotation 
							JOINT Hand_L
							{
								OFFSET 22.2916 0.0 0.0
								CHANNELS 6 Xposition Yposition Zposition Zrotation Xrotation Yrotation 
								End Site
								{
									OFFSET 0.0 0.0 0.0
								}
							}
						}
					}
				}
				JOINT Shoulder_R
				{
					OFFSET 12.9945 -0.242716 -4.98039
					CHANNELS 6 Xposition Yposition Zposition Zrotation Xrotation Yrotation 
					JOINT UpperArm_R
					{
						OFFSET -5.34813 0.0 0.0
						CHANNELS 6 Xposition Yposition Zposition Zrotation Xrotation Yrotation 
						JOINT LowerArm_R
						{
							OFFSET -24.3289 0.000322201 0.0
							CHANNELS 6 Xposition Yposition Zposition Zrotation Xrotation Yrotation 
							JOINT Hand_R
							{
								OFFSET -22.2915 -0.000108084 0.0
								CHANNELS 6 Xposition Yposition Zposition Zrotation Xrotation Yrotation 
								End Site
								{
									OFFSET 0.0 0.0 0.0
								}
							}
						}
					}
				}
			}
		}
		JOINT UpperLeg_L
		{
			OFFSET -2.19248 -6.46944 0.0
			CHANNELS 6 Xposition Yposition Zposition Zrotation Xrotation Yrotation 
			JOINT LowerLeg_L
			{
				OFFSET 39.0811 0.0 -1.23785e-05
				CHANNELS 6 Xposition Yposition Zposition Zrotation Xrotation Yrotation 
				JOINT Foot_L
				{
					OFFSET 40.9854 0.0 -1.26872e-05
					CHANNELS 6 Xposition Yposition Zposition Zrotation Xrotation Yrotation 
					JOINT Toes_L
					{
						OFFSET 11.7543 0.0 0.0
						CHANNELS 6 Xposition Yposition Zposition Zrotation Xrotation Yrotation 
						End Site
						{
							OFFSET 0.0 0.0 0.0
						}
					}
				}
			}
		}
		JOINT UpperLeg_R
		{
			OFFSET -2.19251 6.46944 0.0
			CHANNELS 6 Xposition Yposition Zposition Zrotation Xrotation Yrotation 
			JOINT LowerLeg_R
			{
				OFFSET -39.0811 -0.00228153 -0.0401928
				CHANNELS 6 Xposition Yposition Zposition Zrotation Xrotation Yrotation 
				JOINT Foot_R
				{
					OFFSET -40.9854 0.0 0.0
					CHANNELS 6 Xposition Yposition Zposition Zrotation Xrotation Yrotation 
					JOINT Toes_R
					{
						OFFSET -11.7543 0.0 0.0
						CHANNELS 6 Xposition Yposition Zposition Zrotation Xrotation Yrotation 
						End Site
						{
							OFFSET 0.0 0.0 0.0
						}
					}
				}
			}
		}
	}
}
MOTION
Frames:	6
Frame Time:	0.0333333
0.000000 0.000000 0.000000 0.000000 0.000000 -0.000000 -1.909630 93.905500 -5.866650 87.797000 0.416987 -3.199100 15.735700 0.000005 -0.000001 105.748000 86.495300 -104.503000 8.984550 -0.406207 -0.000000 -1.038080 1.806370 2.506230 16.377300 -0.000001 -0.000001 -10.318700 0.829334 -2.234840 6.456720 -0.000001 -0.000000 -10.578300 -2.418600 0.567949 12.994200 -0.242716 4.980390 -92.365300 9.239060 -75.572500 5.348090 -0.000007 -0.000001 -66.865400 15.157600 -13.885700 24.328600 0.000019 0.000005 3.827130 37.930900 -6.213140 22.291600 -0.000001 0.000005 -19.389900 5.201310 2.700050 12.994500 -0.242716 -4.980390 88.984800 5.249060 -79.037800 -5.348130 -0.000001 -0.000004 -69.544900 20.258400 -10.653800 -24.328900 0.000322 -0.000009 -0.181774 -5.061580 -2.033980 -22.291500 -0.000108 -0.000004 -6.662680 5.056200 6.126980 -2.192480 -6.469440 -0.000000 -172.506000 -6.182380 -6.495720 39.081100 -0.000007 -0.000012 -0.001798 0.009803 10.390600 40.985400 -0.000006 -0.000013 -4.801350 12.596600 -63.924000 11.754300 -0.000000 0.000003 0.000996 0.148731 -10.545100 -2.192510 6.469440 -0.000001 179.541000 7.585620 175.245000 -39.081100 -0.002282 -0.040193 0.015267 -0.087712 7.741990 -40.985400 0.000008 0.000006 -7.035920 3.894570 -62.664100 -11.754300 -0.000006 -0.000006 -0.007329 0.250132 -6.416150
0.000000 0.000000 0.000000 0.000000 0.000000 -0.000000 -1.924410 93.921100 -5.651400 87.755200 -0.261840 -3.336980 15.735700 0.000005 -0.000001 107.524000 86.360500 -106.325000 8.984550 -0.406207 -0.000000 -0.845712 2.101200 2.413700 16.377300 -0.000001 -0.000001 -11.024500 1.083180 -1.616050 6.456720 -0.000001 -0.000000 -12.752100 -1.616690 0.890414 12.994200 -0.242716 4.980390 -92.265800 9.376420 -76.350000 5.348090 -0.000007 -0.000001 -63.951600 9.208370 -20.020800 24.328600 0.000019 0.000005 1.253140 44.458300 -1.789790 22.291600 -0.000001 0.000005 -23.406800 5.125420 4.527620 12.994500 -0.242716 -4.980390 89.118600 4.797010 -79.575700 -5.348130 -0.000001 -0.000004 -67.201800 19.262600 -17.836600 -24.328900 0.000322 -0.000009 -0.002135 0.986488 -0.000004 -22.291500 -0.000108 -0.000004 -11.728000 4.864230 10.104300 -2.192480 -6.469440 -0.000000 -172.423000 -6.530010 -6.172490 39.081100 -0.000007 -0.000012 -0.006012 0.034221 9.962330 40.985400 -0.000006 -0.000013 -5.233960 12.212600 -63.511100 11.754300 -0.000000 0.000003 0.000804 0.152773 -10.381000 -2.192510 6.469440 -0.000001 179.583000 7.874770 175.485000 -39.081100 -0.002282 -0.040193 0.012619 -0.074305 7.115610 -40.985400 0.000008 0.000006 -6.994680 4.687610 -62.192200 -11.754300 -0.000006 -0.000006 -0.007675 0.253026 -6.297980
0.000000 0.000000 0.000000 0.000000 0.000000 -0.000000 -1.945080 93.948000 -5.393360 87.697600 -1.137140 -3.503080 15.735700 0.000005 -0.000001 108.935000 86.462100 -107.713000 8.984550 -0.406207 -0.000000 -1.095410 2.201140 2.463420 16.377300 -0.000001 -0.000001 -10.881500 1.612840 -1.205620 6.456720 -0.000001 -0.000000 -14.197500 -0.657841 1.131750 12.994200 -0.242716 4.980390 -91.969200 8.169420 -76.398200 5.348090 -0.000007 -0.000001 -61.740500 3.584050 -26.247900 24.328600 0.000019 0.000005 1.389090 50.471200 -1.800570 22.291600 -0.000001 0.000005 -24.943200 5.146810 4.021180 12.994500 -0.242716 -4.980390 89.311900 3.751990 -79.599900 -5.348130 -0.000001 -0.000004 -65.459200 15.422300 -25.997100 -24.328900 0.000322 -0.000009 -0.000776 7.795480 0.000029 -22.291500 -0.000108 -0.000004 -15.402400 4.698890 13.178900 -2.192480 -6.469440 -0.000000 -172.301000 -6.911450 -5.748220 39.081100 -0.000007 -0.000012 -0.011184 0.067658 9.385920 40.985400 -0.000006 -0.000013 -6.054860 11.696500 -62.921400 11.754300 -0.000000 0.000003 0.000449 0.159694 -10.100100 -2.192510 6.469440 -0.000001 179.595000 7.866590 175.914000 -39.081100 -0.002282 -0.040193 0.008428 -0.047811 6.068140 -40.985400 0.000008 0.000006 -7.198850 5.391080 -61.434700 -11.754300 -0.000006 -0.000006 -0.008397 0.258906 -6.057810
0.000000 0.000000 0.000000 0.000000 0.000000 -0.000000 -1.964090 93.983400 -5.064840 87.612300 -1.958440 -3.860760 15.735700 0.000005 -0.000001 111.310000 86.971100 -110.019000 8.984550 -0.406207 -0.000000 -2.145190 2.089200 2.621720 16.377300 -0.000001 -0.000001 -9.691240 2.189320 -1.115120 6.456720 -0.000001 -0.000000 -14.503200 0.159007 1.661540 12.994200 -0.242716 4.980390 -91.576700 6.321210 -75.963700 5.348090 -0.000007 -0.000001 -58.725000 -1.588270 -32.492700 24.328600 0.000019 0.000005 2.846590 47.117000 -3.883150 22.291600 -0.000001 0.000005 -22.947500 5.183630 3.124240 12.994500 -0.242716 -4.980390 89.534700 2.495570 -79.435600 -5.348130 -0.000001 -0.000004 -63.903100 10.737300 -34.331000 -24.328900 0.000322 -0.000009 -0.001545 10.038100 0.000040 -22.291500 -0.000108 -0.000004 -16.099100 4.774050 11.809100 -2.192480 -6.469440 -0.000000 -172.167000 -7.850500 -5.319280 39.081100 -0.000007 -0.000012 -0.013863 0.092665 8.508150 40.985400 -0.000006 -0.000013 -6.862340 11.792600 -62.192700 11.754300 -0.000000 0.000003 0.000205 0.164097 -9.921310 -2.192510 6.469440 -0.000001 179.618000 7.753940 176.538000 -39.081100 -0.002282 -0.040193 0.006290 -0.038548 4.363700 -40.985400 0.000008 0.000006 -7.788940 5.970430 -60.337900 -11.754300 -0.000006 -0.000006 -0.009088 0.264358 -5.835050
0.000000 0.000000 0.000000 0.000000 0.000000 -0.000000 -1.975180 94.002800 -4.630010 87.537000 -2.712400 -4.025180 15.735700 0.000005 -0.000001 114.127000 87.554400 -112.747000 8.984550 -0.406207 -0.000000 -3.323990 1.864860 2.814680 16.377300 -0.000001 -0.000001 -8.302760 2.595500 -0.846106 6.456720 -0.000001 -0.000000 -13.721200 0.895945 1.794060 12.994200 -0.242716 4.980390 -91.133100 4.357200 -75.407300 5.348090 -0.000007 -0.000001 -55.003900 -7.636260 -39.063600 24.328600 0.000019 0.000005 3.644110 38.744200 -5.812240 22.291600 -0.000001 0.000005 -18.610200 5.154950 3.815460 12.994500 -0.242716 -4.980390 89.760800 1.250220 -79.167400 -5.348130 -0.000001 -0.000004 -61.550400 6.318640 -43.545100 -24.328900 0.000322 -0.000009 0.141202 5.394890 -1.524190 -22.291500 -0.000108 -0.000004 -13.102100 4.966150 8.050470 -2.192480 -6.469440 -0.000000 -172.041000 -8.923520 -4.709400 39.081100 -0.000007 -0.000012 -0.014680 0.107062 7.807350 40.985400 -0.000006 -0.000013 -7.634970 12.067000 -61.662300 11.754300 -0.000000 0.000003 -0.000232 0.171437 -9.623220 -2.192510 6.469440 -0.000001 179.564000 7.613870 177.627000 -39.081100 -0.002282 -0.040193 0.006424 -0.076794 2.291330 -40.985400 0.000008 0.000006 -8.607340 6.493060 -59.065500 -11.754300 -0.000006 -0.000006 -0.009696 0.269022 -5.644370
0.000000 0.000000 0.000000 0.000000 0.000000 -0.000000 -1.981890 94.029000 -4.084110 87.544700 -3.196190 -4.088760 15.735700 0.000005 -0.000001 115.993000 88.047000 -114.570000 8.984550 -0.406207 -0.000000 -4.273780 1.561070 2.907390 16.377300 -0.000001 -0.000001 -7.484470 2.626600 -0.351254 6.456720 -0.000001 -0.000000 -12.335800 1.318060 2.015390 12.994200 -0.242716 4.980390 -90.567500 2.076030 -74.704000 5.348090 -0.000007 -0.000001 -50.638000 -13.599300 -45.979500 24.328600 0.000019 0.000005 4.161210 32.694000 -7.671340 22.291600 -0.000001 0.000005 -12.176200 5.116170 4.735780 12.994500 -0.242716 -4.980390 90.129900 -0.663012 -78.918900 -5.348130 -0.000001 -0.000004 -58.884100 1.388580 -52.969000 -24.328900 0.000322 -0.000009 -0.123866 -1.313920 -5.289400 -22.291500 -0.000108 -0.000004 -7.892040 5.129420 4.453820 -2.192480 -6.469440 -0.000000 -171.926000 -9.192630 -3.577800 39.081100 -0.000007 -0.000012 -0.010597 0.095850 6.308740 40.985400 -0.000006 -0.000013 -8.654200 11.879900 -60.715900 11.754300 -0.000000 0.000003 -0.000308 0.172661 -9.573510 -2.192510 6.469440 -0.000001 179.484000 7.656360 177.767000 -39.081100 -0.002282 -0.040193 0.006853 -0.080950 2.476520 -40.985400 0.000008 0.000006 -8.784570 6.961760 -59.031700 -11.754300 -0.000006 -0.000006 -0.009966 0.271050 -5.561420
